<svg class="icon" viewBox="0 0 1024 1024" version="1.1" xmlns="http://www.w3.org/2000/svg" width="200" height="200"><path d="M0 512c0 282.770286 229.229714 512 512 512s512-229.229714 512-512S794.770286 0 512 0 0 229.229714 0 512z" fill="#1296db" opacity=".1"></path><path d="M510.844343 815.8208c-8.338286 0-15.111314-6.773029-15.111314-15.125943V219.911314a15.125943 15.125943 0 0 1 30.237257 0v580.783543c0 8.338286-6.773029 15.125943-15.125943 15.125943z" fill="#1296db" opacity=".5"></path><path d="M716.214857 730.784914c-3.876571 0-7.753143-1.448229-10.708114-4.4032L294.838857 315.640686a15.111314 15.111314 0 0 1 0-21.4016 15.111314 15.111314 0 0 1 21.416229 0l410.667885 410.667885a15.111314 15.111314 0 0 1 0 21.4016 15.125943 15.125943 0 0 1-10.708114 4.476343z" fill="#1296db" opacity=".5"></path><path d="M801.236114 525.429029H220.4672a15.125943 15.125943 0 0 1 0-30.237258h580.768914a15.125943 15.125943 0 0 1 0 30.237258z" fill="#1296db" opacity=".5"></path><path d="M305.488457 730.784914a15.111314 15.111314 0 0 1-10.708114-25.819428l410.7264-410.667886a15.111314 15.111314 0 0 1 21.416228 0 15.111314 15.111314 0 0 1 0 21.4016L316.196571 726.381714a15.316114 15.316114 0 0 1-10.708114 4.4032z" fill="#1296db" opacity=".5"></path><path d="M510.844343 285.403429c-124.196571 0-224.885029 100.688457-224.885029 224.899657S386.633143 735.202743 510.829714 735.202743c124.2112 0 224.899657-100.688457 224.899657-224.899657 0-124.196571-100.688457-224.899657-224.899657-224.899657z m0 390.421942c-91.370057 0-165.507657-74.079086-165.507657-165.522285 0-91.428571 74.1376-165.449143 165.507657-165.449143 91.384686 0 165.522286 74.079086 165.522286 165.507657s-74.1376 165.449143-165.522286 165.449143z" fill="#1296db"></path><path d="M510.844343 744.272457a232.301714 232.301714 0 0 1-91.062857-18.388114 233.925486 233.925486 0 0 1-74.386286-50.132114 233.252571 233.252571 0 0 1-68.5056-165.449143c0-31.568457 6.158629-62.215314 18.373486-91.062857a233.925486 233.925486 0 0 1 50.132114-74.386286 233.252571 233.252571 0 0 1 165.449143-68.520229c31.568457 0 62.229943 6.173257 91.077486 18.388115a233.925486 233.925486 0 0 1 74.386285 50.132114 233.252571 233.252571 0 0 1 68.5056 165.449143 232.301714 232.301714 0 0 1-18.373485 91.077485 233.925486 233.925486 0 0 1-50.132115 74.371658 233.252571 233.252571 0 0 1-165.449143 68.520228z m0-449.784686c-57.636571 0-111.864686 22.4256-152.619886 63.195429a214.381714 214.381714 0 0 0-63.195428 152.619886c0 57.636571 22.4256 111.879314 63.195428 152.634514a214.381714 214.381714 0 0 0 152.619886 63.195429c57.636571 0 111.879314-22.440229 152.634514-63.195429a214.381714 214.381714 0 0 0 63.195429-152.634514c0-57.636571-22.4256-111.864686-63.195429-152.634515a214.484114 214.484114 0 0 0-152.634514-63.195428z m0 390.407315c-46.621257 0-90.463086-18.139429-123.421257-51.0976a173.407086 173.407086 0 0 1-51.0976-123.435886c0-46.621257 18.139429-90.463086 51.0976-123.421257a173.407086 173.407086 0 0 1 123.421257-51.0976c46.635886 0 90.477714 18.139429 123.435886 51.0976a173.407086 173.407086 0 0 1 51.0976 123.421257c0 46.635886-18.139429 90.477714-51.0976 123.435886a173.407086 173.407086 0 0 1-123.435886 51.0976z m0-330.971429c-41.7792 0-81.027657 16.266971-110.592 45.845943a155.3408 155.3408 0 0 0-45.845943 110.592c0 41.793829 16.266971 81.042286 45.845943 110.606629a155.3408 155.3408 0 0 0 110.592 45.845942c41.793829 0 81.042286-16.266971 110.606628-45.845942a155.3408 155.3408 0 0 0 45.845943-110.592c0-41.793829-16.266971-81.042286-45.845943-110.606629a155.3408 155.3408 0 0 0-110.592-45.845943z" fill="#1296db"></path><path d="M463.506286 510.303086a47.352686 47.352686 0 1 0 94.690743 0 47.352686 47.352686 0 0 0-94.690743 0z" fill="#1296db"></path><path d="M510.844343 566.725486a56.5248 56.5248 0 0 1-56.407772-56.4224 56.5248 56.5248 0 0 1 56.407772-56.4224 56.5248 56.5248 0 0 1 56.4224 56.4224 56.5248 56.5248 0 0 1-56.4224 56.4224z m0-94.690743a38.326857 38.326857 0 0 0-38.268343 38.268343 38.326857 38.326857 0 0 0 38.268343 38.282971 38.326857 38.326857 0 0 0 38.282971-38.282971 38.326857 38.326857 0 0 0-38.282971-38.268343z" fill="#1296db"></path></svg>
